<?xml version="1.0" encoding="utf-8"?>
<!-- Generator: Adobe Illustrator 27.2.0, SVG Export Plug-In . SVG Version: 6.00 Build 0)  -->
<svg version="1.1" id="Layer_1" xmlns="http://www.w3.org/2000/svg" xmlns:xlink="http://www.w3.org/1999/xlink" x="0px" y="0px"
	 viewBox="0 0 40 40" style="enable-background:new 0 0 40 40;" xml:space="preserve">
<style type="text/css">
	.st0{fill:#1F449C;}
	.st1{fill:#1F216A;}
	.st2{fill:#FFFFFF;}
</style>
<g>
	<circle class="st0" cx="20" cy="20" r="18.9"/>
	<path class="st1" d="M20,2.1c9.9,0,17.9,8,17.9,17.9s-8,17.9-17.9,17.9S2.1,29.9,2.1,20S10.1,2.1,20,2.1 M20,0C9,0,0,9,0,20
		s9,20,20,20s20-9,20-20S31,0,20,0L20,0z"/>
</g>
<path class="st2" d="M8.2,16.5v10.1c0,0.3,0.3,0.6,0.6,0.6h3V15.3H9.4C8.8,15.3,8.2,15.9,8.2,16.5z M21.6,14.7h-0.9v-1.5
	c0-0.2-0.1-0.3-0.3-0.3h-0.6c-0.2,0-0.3,0.1-0.3,0.3v2.4c0,0.2,0.1,0.3,0.3,0.3h1.8c0.2,0,0.3-0.1,0.3-0.3V15
	C21.9,14.9,21.8,14.7,21.6,14.7z M26.7,12.4l-5.9-4c-0.4-0.3-0.9-0.3-1.3,0l-5.9,4c-0.3,0.2-0.5,0.6-0.5,1v13.9h4.8v-5.3
	c0-0.3,0.3-0.6,0.6-0.6h3.6c0.3,0,0.6,0.3,0.6,0.6v5.3h4.8V13.3C27.2,13,27.1,12.6,26.7,12.4z M20.1,17.7c-1.6,0-3-1.3-3-3
	s1.3-3,3-3c1.6,0,3,1.3,3,3S21.8,17.7,20.1,17.7z M30.8,15.3h-2.4v11.9h3c0.3,0,0.6-0.3,0.6-0.6V16.5C32,15.9,31.5,15.3,30.8,15.3z"
	/>
</svg>
