<?xml version="1.0" encoding="utf-8"?>
<!-- Generator: Adobe Illustrator 27.2.0, SVG Export Plug-In . SVG Version: 6.00 Build 0)  -->
<svg version="1.1" xmlns="http://www.w3.org/2000/svg" xmlns:xlink="http://www.w3.org/1999/xlink" x="0px" y="0px"
	 viewBox="0 0 500 820" style="enable-background:new 0 0 500 820;" xml:space="preserve">
<style type="text/css">
	.st0{fill-rule:evenodd;clip-rule:evenodd;fill:#FFFFFF;}
	
		.st1{fill-rule:evenodd;clip-rule:evenodd;fill:#1F449C;stroke:#1F216A;stroke-width:21.4959;stroke-linecap:round;stroke-miterlimit:78.1668;}
	.st2{fill:#FFFFFF;}
</style>
<g id="Layer_1">
	<g transform="matrix(19.5417,0,0,19.5417,-7889.1,-9807.44)">
		<path class="st0" d="M421.2,515.5c0,2.6-2.1,4.7-4.7,4.7s-4.7-2.1-4.7-4.7c0-2.6,2.1-4.7,4.7-4.7S421.2,512.9,421.2,515.5z"/>
		<path class="st1" d="M416.5,503.6c-6.6,0-12,5.7-12,11.9c0,2.8,1.6,6.3,2.7,8.7l9.3,17.9l9.3-17.9c1.1-2.4,2.7-5.8,2.7-8.7
			C428.5,509.3,423.1,503.6,416.5,503.6z"/>
	</g>
</g>
<g id="Layer_2">
	<path class="st2" d="M91.8,222.2v134.4c0,4.4,3.5,7.9,7.9,7.9h39.5V206.4h-31.6C98.9,206.4,91.8,213.5,91.8,222.2z M269.8,198.5
		h-11.9v-19.8c0-2.2-1.8-4-4-4h-7.9c-2.2,0-4,1.8-4,4v31.6c0,2.2,1.8,4,4,4h23.7c2.2,0,4-1.8,4-4v-7.9
		C273.7,200.3,272,198.5,269.8,198.5z M337.9,166.9l-79.1-52.7c-5.3-3.5-12.2-3.5-17.5,0l-79.1,52.7c-4.4,2.9-7,7.9-7,13.2v184.5
		h63.3v-71.2c0-4.4,3.5-7.9,7.9-7.9h47.5c4.4,0,7.9,3.5,7.9,7.9v71.2h63.3V180.1C344.9,174.8,342.3,169.8,337.9,166.9z M250,238.1
		c-21.8,0-39.5-17.7-39.5-39.5S228.2,159,250,159s39.5,17.7,39.5,39.5S271.9,238.1,250,238.1z M392.4,206.4h-31.6v158.2h39.5
		c4.4,0,7.9-3.5,7.9-7.9V222.2C408.2,213.5,401.1,206.4,392.4,206.4z"/>
</g>
</svg>
