<?xml version="1.0" encoding="utf-8"?>
<!-- Generator: Adobe Illustrator 27.2.0, SVG Export Plug-In . SVG Version: 6.00 Build 0)  -->
<svg version="1.1" id="Layer_1" xmlns="http://www.w3.org/2000/svg" xmlns:xlink="http://www.w3.org/1999/xlink" x="0px" y="0px"
	 viewBox="0 0 40 40" style="enable-background:new 0 0 40 40;" xml:space="preserve">
<style type="text/css">
	.st0{fill:#1F449C;}
	.st1{fill:#FFFFFF;}
	.st2{display:none;fill:#FFFFFF;}
</style>
<g>
	<circle class="st0" cx="20" cy="20" r="18.9"/>
	<path class="st1" d="M20,2.1c9.9,0,17.9,8,17.9,17.9s-8,17.9-17.9,17.9S2.1,29.9,2.1,20S10.1,2.1,20,2.1 M20,0C9,0,0,9,0,20
		s9,20,20,20s20-9,20-20S31,0,20,0L20,0z"/>
</g>
<path class="st2" d="M7.2,16.7v10.8c0,0.4,0.3,0.6,0.6,0.6h3.2V15.4H8.5C7.8,15.4,7.2,16,7.2,16.7z M21.6,14.8h-1v-1.6
	c0-0.2-0.1-0.3-0.3-0.3h-0.6c-0.2,0-0.3,0.1-0.3,0.3v2.5c0,0.2,0.1,0.3,0.3,0.3h1.9c0.2,0,0.3-0.1,0.3-0.3v-0.6
	C21.9,15,21.8,14.8,21.6,14.8z M27.1,12.3L20.7,8c-0.4-0.3-1-0.3-1.4,0l-6.4,4.3c-0.4,0.2-0.6,0.6-0.6,1.1v14.9h5.1v-5.7
	c0-0.4,0.3-0.6,0.6-0.6h3.8c0.4,0,0.6,0.3,0.6,0.6v5.7h5.1V13.3C27.7,12.9,27.4,12.5,27.1,12.3z M20,18c-1.8,0-3.2-1.4-3.2-3.2
	s1.4-3.2,3.2-3.2s3.2,1.4,3.2,3.2S21.8,18,20,18z M31.5,15.4h-2.5v12.8h3.2c0.4,0,0.6-0.3,0.6-0.6V16.7C32.8,16,32.2,15.4,31.5,15.4
	z"/>
<g>
	<path class="st1" d="M20.2,18.5v-1c0-0.1-0.1-0.2-0.2-0.2s-0.2,0.1-0.2,0.2v1.2c0,0.1,0.1,0.2,0.2,0.2h1.1c0.1,0,0.2-0.1,0.2-0.2
		c0-0.1-0.1-0.2-0.2-0.2C21.1,18.5,20.2,18.5,20.2,18.5z"/>
	<path class="st1" d="M31.7,18.1h-7.3l-4.4-4l-4.4,4H8.3c-0.1,0-0.2,0.1-0.2,0.2v9.1c0,0.3,0.1,0.4,0.4,0.4H18c0.1,0,0.1,0,0.1-0.1
		v-2.9c0-1,0.8-1.8,1.9-1.8s1.9,0.8,1.9,1.8v2.9c0,0.1,0,0.1,0.1,0.1h9.4c0.3,0,0.4-0.1,0.4-0.4v-9.1C31.9,18.2,31.8,18.1,31.7,18.1
		z M12.3,25.5c0,0.1-0.1,0.2-0.2,0.2h-2c-0.1,0-0.2-0.1-0.2-0.2v-2c0-0.1,0.1-0.2,0.2-0.2h2c0.1,0,0.2,0.1,0.2,0.2V25.5z M12.3,21.8
		c0,0.1-0.1,0.2-0.2,0.2h-2c-0.1,0-0.2-0.1-0.2-0.2v-2c0-0.1,0.1-0.2,0.2-0.2h2c0.1,0,0.2,0.1,0.2,0.2V21.8z M16.1,25.5
		c0,0.1-0.1,0.2-0.2,0.2h-2c-0.1,0-0.2-0.1-0.2-0.2v-2c0-0.1,0.1-0.2,0.2-0.2h2c0.1,0,0.2,0.1,0.2,0.2V25.5z M16.1,21.8
		c0,0.1-0.1,0.2-0.2,0.2h-2c-0.1,0-0.2-0.1-0.2-0.2v-2c0-0.1,0.1-0.2,0.2-0.2h2c0.1,0,0.2,0.1,0.2,0.2V21.8z M20,20.4
		c-0.9,0-1.7-0.8-1.7-1.7c0-0.9,0.8-1.7,1.7-1.7c0.9,0,1.7,0.8,1.7,1.7C21.7,19.7,20.9,20.4,20,20.4z M26.2,25.5
		c0,0.1-0.1,0.2-0.2,0.2h-2c-0.1,0-0.2-0.1-0.2-0.2v-2c0-0.1,0.1-0.2,0.2-0.2h2c0.1,0,0.2,0.1,0.2,0.2
		C26.2,23.5,26.2,25.5,26.2,25.5z M26.2,21.8c0,0.1-0.1,0.2-0.2,0.2h-2c-0.1,0-0.2-0.1-0.2-0.2v-2c0-0.1,0.1-0.2,0.2-0.2h2
		c0.1,0,0.2,0.1,0.2,0.2C26.2,19.8,26.2,21.8,26.2,21.8z M30,25.5c0,0.1-0.1,0.2-0.2,0.2h-2c-0.1,0-0.2-0.1-0.2-0.2v-2
		c0-0.1,0.1-0.2,0.2-0.2h2c0.1,0,0.2,0.1,0.2,0.2V25.5z M30,21.8c0,0.1-0.1,0.2-0.2,0.2h-2c-0.1,0-0.2-0.1-0.2-0.2v-2
		c0-0.1,0.1-0.2,0.2-0.2h2c0.1,0,0.2,0.1,0.2,0.2V21.8z"/>
	<path class="st1" d="M20.8,10.7c1.2-0.8,2.3,0.4,3.5-0.3c0,0,0.1-0.1,0.1-0.1V7.7c0-0.1,0-0.1-0.1-0.1C23,8.3,22,7.2,20.7,8
		c0,0-0.1,0.1-0.1,0.1v2.5C20.7,10.7,20.7,10.7,20.8,10.7z"/>
	<path class="st1" d="M31.7,16.2L29.3,14c-0.2-0.2-0.4-0.3-0.7-0.3h-5.9l-2.4-2.2V8c0-0.2-0.1-0.3-0.3-0.3c-0.2,0-0.3,0.1-0.3,0.3
		v3.6l-2.4,2.2l-5.9,0c-0.3,0-0.5,0.1-0.7,0.3l-2.4,2.2c-0.1,0.1-0.1,0.2-0.1,0.3v0.4c0,0.1,0.1,0.2,0.2,0.2l6.9,0l4.7-4.3l4.7,4.3
		h6.9c0.1,0,0.2-0.1,0.2-0.2v-0.4C31.9,16.4,31.8,16.3,31.7,16.2z"/>
</g>
</svg>
