<?xml version="1.0" encoding="utf-8"?>
<!-- Generator: Adobe Illustrator 27.2.0, SVG Export Plug-In . SVG Version: 6.00 Build 0)  -->
<svg version="1.1" id="Layer_1" xmlns="http://www.w3.org/2000/svg" xmlns:xlink="http://www.w3.org/1999/xlink" x="0px" y="0px"
	 viewBox="0 0 40 40" style="enable-background:new 0 0 40 40;" xml:space="preserve">
<style type="text/css">
	.st0{fill:#1F449C;}
	.st1{fill:#1F216A;}
	.st2{fill:#FFFFFF;}
</style>
<g>
	<circle class="st0" cx="20" cy="20" r="18.9"/>
	<path class="st1" d="M20,2.1c9.9,0,17.9,8,17.9,17.9s-8,17.9-17.9,17.9S2.1,29.9,2.1,20S10.1,2.1,20,2.1 M20,0C9,0,0,9,0,20
		s9,20,20,20s20-9,20-20S31,0,20,0L20,0z"/>
</g>
<path class="st2" d="M7.2,18.7v10.8c0,0.4,0.3,0.6,0.6,0.6h3.2V17.4H8.5C7.8,17.4,7.2,18,7.2,18.7z M21.6,16.8h-1v-1.6
	c0-0.2-0.1-0.3-0.3-0.3h-0.6c-0.2,0-0.3,0.1-0.3,0.3v2.5c0,0.2,0.1,0.3,0.3,0.3h1.9c0.2,0,0.3-0.1,0.3-0.3v-0.6
	C21.9,17,21.8,16.8,21.6,16.8z M27.1,14.3L20.7,10c-0.4-0.3-1-0.3-1.4,0l-6.4,4.3c-0.4,0.2-0.6,0.6-0.6,1.1v14.9h5.1v-5.7
	c0-0.4,0.3-0.6,0.6-0.6h3.8c0.4,0,0.6,0.3,0.6,0.6v5.7h5.1V15.3C27.7,14.9,27.4,14.5,27.1,14.3z M20,20c-1.8,0-3.2-1.4-3.2-3.2
	s1.4-3.2,3.2-3.2s3.2,1.4,3.2,3.2C23.2,18.6,21.8,20,20,20z M31.5,17.4h-2.5v12.8h3.2c0.4,0,0.6-0.3,0.6-0.6V18.7
	C32.8,18,32.2,17.4,31.5,17.4z"/>
</svg>
